 <svg  version="1.0" xmlns="http://www.w3.org/2000/svg"  width="300.000000pt" height="300.000000pt" viewBox="0 0 300.000000 300.000000"  preserveAspectRatio="xMidYMid meet">  <g transform="translate(0.000000,300.000000) scale(0.100000,-0.100000)" fill="#ffffff" stroke="#ffffff" stroke-width="50"> <path d="M970 2655 c-598 -222 -592 -219 -609 -246 -24 -40 6 -62 161 -118 79 -29 159 -59 178 -67 137 -55 806 -294 825 -294 31 0 1104 395 1135 419 32 23 36 52 12 74 -25 23 -1115 427 -1149 427 -16 -1 -264 -88 -553 -195z m1180 -71 c272 -101 501 -184 508 -184 34 0 1 -19 -96 -54 -59 -21 -314 -114 -566 -207 -253 -93 -465 -169 -471 -169 -7 0 -251 87 -542 194 -292 107 -549 200 -572 207 -40 12 -56 29 -26 29 14 0 486 172 985 359 l155 58 65 -24 c36 -14 288 -108 560 -209z"/> <path d="M122 2247 l-22 -23 0 -793 0 -792 23 -22 c20 -21 62 -38 302 -125 44 -16 266 -98 494 -181 227 -84 426 -154 441 -157 21 -5 32 0 49 22 l21 27 -2 789 -3 790 -26 22 c-14 12 -146 66 -295 120 -148 54 -303 110 -344 126 -180 68 -601 220 -608 220 -5 0 -18 -10 -30 -23z m671 -252 l597 -218 0 -799 0 -798 -37 15 c-21 8 -301 111 -623 229 l-585 214 -3 801 -2 802 27 -14 c16 -8 297 -112 626 -232z"/> <path d="M2320 2079 c-283 -104 -555 -204 -605 -221 -53 -19 -101 -43 -118 -59 l-27 -28 2 -789 c3 -761 4 -791 22 -811 11 -12 26 -21 33 -21 13 0 429 150 953 343 282 104 289 107 305 130 13 19 15 124 15 813 l0 793 -26 20 c-15 12 -29 21 -33 20 -3 0 -238 -85 -521 -190z m542 -636 c-1 -439 -6 -800 -10 -804 -4 -3 -45 -20 -92 -37 -231 -83 -1101 -403 -1132 -417 -17 -7 -18 35 -18 792 l0 799 598 219 c328 120 608 224 622 231 14 7 27 13 30 14 3 0 4 -359 2 -797z"/> </g> </svg> 